<?xml version="1.0" standalone="no"?>
<!DOCTYPE svg PUBLIC "-//W3C//DTD SVG 20010904//EN"
 "http://www.w3.org/TR/2001/REC-SVG-20010904/DTD/svg10.dtd">
<svg version="1.0" xmlns="http://www.w3.org/2000/svg"
 width="1000.000000pt" height="1000.000000pt" viewBox="0 0 1000.000000 1000.000000"
 preserveAspectRatio="xMidYMid meet">
<metadata>
Created by potrace 1.14, written by Peter Selinger 2001-2017
</metadata>
<g transform="translate(0.000000,1000.000000) scale(0.100000,-0.100000)"
fill="#000000" stroke="none">
<path d="M1167 9586 c-62 -23 -116 -64 -147 -113 -57 -89 -57 -84 -1 -793 28
-355 65 -818 81 -1030 17 -212 41 -524 55 -695 13 -170 36 -458 50 -640 14
-181 30 -384 35 -450 6 -66 49 -610 95 -1210 47 -600 110 -1403 140 -1785 30
-382 64 -816 75 -965 13 -165 27 -289 37 -319 27 -83 107 -156 203 -184 19 -5
350 -110 735 -232 385 -122 963 -305 1285 -407 322 -101 707 -224 855 -271
352 -113 318 -113 670 0 149 47 533 170 855 271 322 102 900 285 1285 407 385
122 716 227 735 232 96 28 176 101 203 184 10 30 24 154 37 319 11 149 45 583
75 965 30 382 93 1185 140 1785 46 600 89 1144 95 1210 5 66 21 269 35 450 14
182 37 470 50 640 14 171 38 481 54 690 17 209 53 675 82 1036 49 633 51 658
35 712 -21 74 -69 133 -136 171 l-55 31 -3810 2 c-3187 2 -3816 0 -3848 -11z
m6400 -1728 c-3 -35 -20 -256 -38 -493 -18 -236 -33 -431 -34 -433 -1 -1 -878
-2 -1949 -2 l-1946 0 0 -23 c0 -12 23 -231 50 -487 28 -256 53 -491 57 -522
l6 -58 1849 0 1850 0 -6 -62 c-4 -35 -15 -175 -26 -313 -11 -137 -31 -394 -45
-570 -13 -176 -29 -378 -35 -450 -5 -71 -37 -474 -70 -894 -33 -420 -60 -771
-60 -780 0 -12 -30 -26 -117 -53 -65 -20 -476 -149 -913 -288 -437 -138 -873
-276 -967 -306 l-173 -55 -172 55 c-95 30 -531 168 -968 306 -437 139 -848
268 -912 288 -88 27 -118 41 -118 53 0 9 -27 359 -60 778 -33 419 -60 775 -60
791 l0 30 565 0 565 0 2 -397 3 -397 120 -32 c66 -17 333 -89 593 -158 l473
-127 582 157 c320 86 585 160 590 163 5 5 97 1180 97 1249 0 9 -369 12 -1814
12 l-1814 0 -6 48 c-3 26 -13 137 -21 247 -8 110 -29 373 -45 585 -17 212 -39
500 -50 640 -11 140 -42 541 -70 890 -27 349 -50 643 -50 653 0 16 129 17
2571 17 l2572 0 -6 -62z"/>
</g>
</svg>
